inDegrees=yes
name=ik_S50_A05_T02
DataType=double
version=3
OpenSimVersion=4.3-2021-08-27-4bc7ad9
endheader
time	pelvis_tilt	pelvis_list	pelvis_rotation	pelvis_tx	pelvis_ty	pelvis_tz	hip_flexion_r	hip_adduction_r	hip_rotation_r	knee_angle_r	knee_angle_r_beta	ankle_angle_r	subtalar_angle_r	mtp_angle_r	hip_flexion_l	hip_adduction_l	hip_rotation_l	knee_angle_l	knee_angle_l_beta	ankle_angle_l	subtalar_angle_l	mtp_angle_l	lumbar_extension	lumbar_bending	lumbar_rotation	arm_flex_r	arm_add_r	arm_rot_r	elbow_flex_r	pro_sup_r	wrist_flex_r	wrist_dev_r	arm_flex_l	arm_add_l	arm_rot_l	elbow_flex_l	pro_sup_l	wrist_flex_l	wrist_dev_l
16.11999999999975	-6.161483966955168	-4.220464066776458	35.95475853157759	0	0.9399999999999999	0	42.34155935130022	-10.20375884253743	-10.34044643331412	45.71320970487155	0.7978460210046338	0	0	0	42.34155935130022	-10.20375884253743	-10.34044643331412	45.71320970487155	0.7978460210046338	0	0	0	-5.388470104230515	-1.541737657390077	-0.9041863573573732	60.44392605545615	6.173484545996877	27.34512699968208	60.32875662373184	74.02752461986717	0	0	19.55367104738903	-7.945938209594604	-6.831121917021047	59.74497659109296	122.4496300010111	0	0
16.13999999999974	-6.159871118776667	-4.218161052850633	35.95791097383027	0	0.9399999999999999	0	42.34431869202086	-10.20317806602124	-10.33974547377046	45.7199681607667	0.797963978312355	0	0	0	42.34431869202086	-10.20317806602124	-10.33974547377046	45.7199681607667	0.797963978312355	0	0	0	-5.388306183549283	-1.537337354617676	-0.9196306859410091	60.44587819130084	6.22886958875149	27.36286868578853	60.25493288580159	74.06656367784191	0	0	19.55105376595635	-7.936450317170229	-6.852329562814683	59.74048875969088	122.4617645947192	0	0
16.15999999999974	-6.161359693667792	-4.228701153244325	35.96821952461924	0	0.9399999999999999	0	42.34584841729617	-10.2028698451235	-10.33936564732385	45.72373346893823	0.7980296953373005	0	0	0	42.34584841729617	-10.2028698451235	-10.33936564732385	45.72373346893823	0.7980296953373005	0	0	0	-5.397374480914161	-1.54240369916206	-0.9334003812956491	60.47218020710987	6.321697120384563	27.38177980811668	60.15994680496947	74.08803837219985	0	0	19.55278642092835	-7.942645383969469	-6.846690681666272	59.74065383498498	122.4765775274754	0	0
16.17999999999974	-6.160178186486804	-4.227167731693537	35.9916087950448	0	0.9399999999999999	0	42.34836574369761	-10.20239125315014	-10.33875654711942	45.72995956587094	0.7981383612283247	0	0	0	42.34836574369761	-10.20239125315014	-10.33875654711942	45.72995956587094	0.7981383612283247	0	0	0	-5.397061083515688	-1.540419603789527	-0.9344770986285843	60.47362778020195	6.394843484797174	27.40111064283988	60.14619931312028	74.04216500972504	0	0	19.55806166844295	-7.933262090105756	-6.812491530344971	59.75302310068592	122.459136574139	0	0
16.19999999999974	-6.157807618019714	-4.237125340341425	36.01513095656664	0	0.9399999999999999	0	42.34896715847332	-10.20223291479048	-10.33858589192815	45.73140933700251	0.7981636645079708	0	0	0	42.34896715847332	-10.20223291479048	-10.33858589192815	45.73140933700251	0.7981636645079708	0	0	0	-5.403399661178512	-1.544699588771771	-0.9690150864609216	60.45405732341118	6.59726472179938	27.38733779110309	59.95627747711409	73.70456310399636	0	0	19.54911886671579	-7.958336879165112	-6.830135253134369	59.74577685005361	122.4518219171197	0	0
16.21999999999974	-6.160979010646024	-4.244895800715365	36.03570787528486	0	0.9399999999999999	0	42.35003006964008	-10.20195069250906	-10.33828255908917	45.73395076478349	0.7982080207904507	0	0	0	42.35003006964008	-10.20195069250906	-10.33828255908917	45.73395076478349	0.7982080207904507	0	0	0	-5.412560716824021	-1.545291216901364	-0.9918974760927831	60.42474101598809	6.833318753056155	27.29783164092798	59.71013947421325	73.72997750718639	0	0	19.55884673657126	-7.964201699011674	-6.821251312530305	59.76127207344564	122.4102189154176	0	0
16.23999999999974	-6.165016655211506	-4.250165633016134	36.08203643197603	0	0.9399999999999999	0	42.35210745536902	-10.2013984483578	-10.33768909933328	45.73890643790126	0.7982945136030082	0	0	0	42.35210745536902	-10.2013984483578	-10.33768909933328	45.73890643790126	0.7982945136030082	0	0	0	-5.421031036835975	-1.54410838251217	-1.005723083592853	60.38163869056436	7.074216410147321	27.17546344711554	59.24146162580233	74.10271326380499	0	0	19.57889746238442	-7.955655195647356	-6.781927463642416	59.77381071656111	122.3869756830633	0	0
